<svg version="1.1" id="Layer_1" xmlns="http://www.w3.org/2000/svg" xmlns:xlink="http://www.w3.org/1999/xlink" x="0px" y="0px"
	 width="100%" viewBox="0 0 247 227" enable-background="new 0 0 247 227" xml:space="preserve">
<path fill="#020202" opacity="1.000000" stroke="none" 
	d="
M1.000000,83.000000 
	C1.000000,55.333340 1.000000,28.166676 1.000000,1.000011 
	C83.333313,1.000007 165.666626,1.000007 247.999954,1.000004 
	C247.999969,76.666634 247.999969,152.333267 247.999985,227.999908 
	C165.666718,227.999939 83.333427,227.999939 1.000072,227.999969 
	C1.000000,179.833328 1.000000,131.666672 1.000000,83.000000 
M213.813721,118.500069 
	C213.813721,105.850761 213.813721,93.201447 213.813721,80.661377 
	C232.485855,72.049782 239.872147,60.280735 236.353348,45.012798 
	C233.010254,30.507168 221.456680,21.712517 206.250732,21.880217 
	C199.607956,21.953480 193.911591,24.279394 188.891571,28.417213 
	C180.128708,35.640129 177.041870,45.233837 178.112686,56.133682 
	C160.223572,56.133682 142.939240,56.133682 125.420380,56.133682 
	C125.345016,54.755135 125.066948,53.592770 125.256386,52.512379 
	C126.752892,43.977467 123.528679,37.767044 116.974930,32.214645 
	C113.259521,29.066917 109.949982,27.039845 105.122093,27.749641 
	C102.679863,28.108698 101.022881,27.556644 99.616470,24.896029 
	C97.215561,20.354046 90.984070,20.586645 88.093376,24.910919 
	C87.426216,25.908945 86.791275,26.928511 85.993614,28.167969 
	C81.094688,19.863464 76.934647,19.515465 71.730759,26.416538 
	C71.288033,27.003664 70.532944,27.642202 69.859604,27.721954 
	C65.452019,28.243999 64.743423,31.152676 64.796341,34.874363 
	C64.899719,42.144451 64.826683,49.417042 64.826683,56.955063 
	C61.945526,56.955063 59.635201,56.942261 57.325058,56.957317 
	C48.123486,57.017288 43.911270,61.190041 43.905781,70.365646 
	C43.887543,100.854416 43.879826,131.343231 43.910648,161.831985 
	C43.919964,171.050186 48.102806,175.175476 57.395325,175.218628 
	C67.058235,175.263504 76.721504,175.228973 86.384621,175.229034 
	C97.156921,175.229111 107.929230,175.229050 119.435516,175.229050 
	C117.416275,184.641907 115.525612,193.455414 113.605110,202.407974 
	C110.799347,202.407974 108.469597,202.302780 106.152756,202.430939 
	C101.942581,202.663818 99.750107,204.897766 99.981590,209.202789 
	C100.197243,213.213257 102.258987,215.130951 106.390968,215.110245 
	C121.385078,215.035141 136.380005,215.036865 151.374146,215.110123 
	C155.418350,215.129868 157.710480,213.402588 157.958191,209.348511 
	C158.210846,205.213486 155.643082,202.372757 151.451263,202.132828 
	C148.996857,201.992340 146.527832,202.107208 143.928497,202.107208 
	C141.955688,192.936981 140.072693,184.184189 138.106552,175.044968 
	C140.026154,175.044968 141.656189,175.044952 143.286240,175.044952 
	C162.112656,175.044952 180.939072,175.055466 199.765472,175.040588 
	C209.369171,175.032990 213.767090,170.660858 213.800430,160.984772 
	C213.848068,147.156693 213.813278,133.328323 213.813721,118.500069 
M46.201935,34.264256 
	C32.415516,34.264202 32.415516,34.264202 30.711508,36.293396 
	C35.975498,38.113869 50.299091,37.584274 53.255905,34.910984 
	C50.830677,34.655781 48.970440,34.460033 46.201935,34.264256 
M160.402405,29.464207 
	C161.002106,33.773262 163.684174,35.986866 167.636139,34.521221 
	C169.519089,33.822903 171.585098,30.704056 171.572174,28.694500 
	C171.561066,26.968184 168.983765,24.295578 167.058609,23.752602 
	C163.479050,22.743015 161.199142,25.104563 160.402405,29.464207 
M22.882925,144.384842 
	C20.054279,146.595093 19.193830,149.692841 21.637451,152.111298 
	C23.094152,153.553009 26.630556,154.267975 28.481524,153.500229 
	C29.952715,152.889999 31.289486,149.333252 30.909636,147.441299 
	C30.171413,143.764389 27.145929,142.687149 22.882925,144.384842 
M219.264587,140.030960 
	C218.750153,143.696121 220.138260,146.691620 223.836655,146.837967 
	C225.900299,146.919632 229.426193,145.036835 229.824493,143.428085 
	C230.331375,141.380722 229.014618,137.755234 227.273575,136.529556 
	C224.313599,134.445770 221.302902,136.019501 219.264587,140.030960 
M209.888306,198.001343 
	C213.381638,197.975769 216.876236,198.000000 220.367905,197.909775 
	C223.493149,197.829025 226.615143,197.622101 229.738571,197.470856 
	C229.717484,196.722183 229.696396,195.973511 229.675308,195.224838 
	C222.700760,195.224838 215.726212,195.224838 208.751663,195.224838 
	C208.825760,196.095184 208.899857,196.965515 209.888306,198.001343 
M75.185143,196.989853 
	C76.254730,196.635880 77.324318,196.281906 79.057732,195.708221 
	C74.096901,193.167679 58.938488,193.445023 56.293537,196.906616 
	C62.276913,196.906616 68.260292,196.906616 75.185143,196.989853 
M224.198776,95.622200 
	C224.198776,107.025574 224.198776,107.025574 226.517609,108.343666 
	C226.517609,101.567215 226.517609,94.835686 226.517609,88.104164 
	C225.921829,88.066910 225.326035,88.029655 224.730255,87.992401 
	C224.553101,90.220680 224.375931,92.448959 224.198776,95.622200 
M33.875713,112.248871 
	C34.101669,114.128220 34.327621,116.007568 34.696930,119.079247 
	C37.775780,113.846573 37.340672,99.572250 33.875713,96.473358 
	C33.875713,101.985863 33.875713,106.649734 33.875713,112.248871 
M18.369581,41.830620 
	C18.513294,42.503826 18.645144,43.762211 18.802437,43.765400 
	C23.881556,43.868362 28.963129,43.850243 34.044334,43.850243 
	C34.062073,43.169590 34.079807,42.488937 34.097542,41.808285 
	C29.218729,40.604137 24.135683,41.334209 18.369581,41.830620 
M75.987465,187.238495 
	C75.887306,188.109955 75.787155,188.981415 75.686996,189.852875 
	C80.777786,189.852875 85.868584,189.852875 91.764435,189.852875 
	C90.708443,188.331024 90.460709,187.632050 90.177879,187.617554 
	C85.755295,187.390762 81.328178,187.252319 75.987465,187.238495 
M26.194553,34.897678 
	C23.442593,34.897678 20.690630,34.897678 17.938669,34.897678 
	C17.975554,35.491913 18.012440,36.086143 18.049324,36.680378 
	C20.998066,36.989948 24.053091,38.866364 26.194553,34.897678 
M205.417267,201.683151 
	C201.921112,201.826096 198.424973,201.969040 194.928818,202.111984 
	C199.892761,205.044205 208.515244,204.682266 211.649597,202.085190 
	C209.471664,201.918716 207.930725,201.800949 205.417267,201.683151 
M195.052826,196.441895 
	C198.026489,199.243622 200.973755,198.106750 203.922058,197.125458 
	C203.910492,196.460251 203.898926,195.795059 203.887360,195.129852 
	C201.057785,195.306686 198.228210,195.483505 195.052826,196.441895 
z"/>
<path fill="#E6E6E6" opacity="1.000000" stroke="none" 
	d="
M213.813721,119.000076 
	C213.813278,133.328323 213.848068,147.156693 213.800430,160.984772 
	C213.767090,170.660858 209.369171,175.032990 199.765472,175.040588 
	C180.939072,175.055466 162.112656,175.044952 143.286240,175.044952 
	C141.656189,175.044952 140.026154,175.044968 138.106552,175.044968 
	C140.072693,184.184189 141.955688,192.936981 143.928497,202.107208 
	C146.527832,202.107208 148.996857,201.992340 151.451263,202.132828 
	C155.643082,202.372757 158.210846,205.213486 157.958191,209.348511 
	C157.710480,213.402588 155.418350,215.129868 151.374146,215.110123 
	C136.380005,215.036865 121.385078,215.035141 106.390968,215.110245 
	C102.258987,215.130951 100.197243,213.213257 99.981590,209.202789 
	C99.750107,204.897766 101.942581,202.663818 106.152756,202.430939 
	C108.469597,202.302780 110.799347,202.407974 113.605110,202.407974 
	C115.525612,193.455414 117.416275,184.641907 119.435516,175.229050 
	C107.929230,175.229050 97.156921,175.229111 86.384621,175.229034 
	C76.721504,175.228973 67.058235,175.263504 57.395325,175.218628 
	C48.102806,175.175476 43.919964,171.050186 43.910648,161.831985 
	C43.879826,131.343231 43.887543,100.854416 43.905781,70.365646 
	C43.911270,61.190041 48.123486,57.017288 57.325058,56.957317 
	C59.635201,56.942261 61.945526,56.955063 64.826683,56.955063 
	C64.826683,49.417042 64.899719,42.144451 64.796341,34.874363 
	C64.743423,31.152676 65.452019,28.243999 69.859604,27.721954 
	C70.532944,27.642202 71.288033,27.003664 71.730759,26.416538 
	C76.934647,19.515465 81.094688,19.863464 85.993614,28.167969 
	C86.791275,26.928511 87.426216,25.908945 88.093376,24.910919 
	C90.984070,20.586645 97.215561,20.354046 99.616470,24.896029 
	C101.022881,27.556644 102.679863,28.108698 105.122093,27.749641 
	C109.949982,27.039845 113.259521,29.066917 116.974930,32.214645 
	C123.528679,37.767044 126.752892,43.977467 125.256386,52.512379 
	C125.066948,53.592770 125.345016,54.755135 125.420380,56.133682 
	C142.939240,56.133682 160.223572,56.133682 178.112686,56.133682 
	C177.041870,45.233837 180.128708,35.640129 188.891571,28.417213 
	C193.911591,24.279394 199.607956,21.953480 206.250732,21.880217 
	C221.456680,21.712517 233.010254,30.507168 236.353348,45.012798 
	C239.872147,60.280735 232.485855,72.049782 213.813721,80.661377 
	C213.813721,93.201447 213.813721,105.850761 213.813721,119.000076 
M211.104202,137.499908 
	C211.104202,118.586540 211.104202,99.673172 211.104202,80.743340 
	C196.109863,81.270721 185.961487,75.156006 180.396103,62.220539 
	C179.307480,59.690273 178.026459,59.165852 175.597153,59.178921 
	C160.098862,59.262306 144.599915,59.213799 129.101227,59.237728 
	C127.993721,59.239437 126.886581,59.472221 125.420700,59.638145 
	C125.420700,61.521492 125.420372,63.164566 125.420746,64.807640 
	C125.423347,76.306686 125.378693,87.806038 125.452179,99.304626 
	C125.481491,103.890938 123.361237,106.054977 118.804703,106.048325 
	C102.972710,106.025208 87.140526,106.005424 71.308693,106.060936 
	C66.741890,106.076950 64.558403,104.049370 64.617592,99.421455 
	C64.707108,92.423149 64.645828,85.422913 64.647102,78.423492 
	C64.648247,72.153839 64.647339,65.884193 64.647339,59.427185 
	C62.706688,59.339375 61.401405,59.237926 60.095421,59.227875 
	C48.734402,59.140408 46.293659,61.556641 46.294304,72.871178 
	C46.295799,99.035683 46.300026,125.200195 46.303070,151.364700 
	C46.303356,153.814987 46.303112,156.265259 46.303112,158.780334 
	C101.464088,158.780334 156.187317,158.780334 211.104218,158.780334 
	C211.104218,151.800827 211.104218,145.150345 211.104202,137.499908 
M67.071327,46.508854 
	C67.071411,63.644947 67.156380,80.781792 67.005379,97.916557 
	C66.972176,101.684967 67.873260,103.253761 72.019684,103.193413 
	C87.322472,102.970695 102.632133,102.980942 117.935356,103.188324 
	C121.976891,103.243103 123.093216,101.857315 123.028542,97.983299 
	C122.828613,86.008003 122.955551,74.027252 122.955551,62.048615 
	C122.955559,55.789993 122.955559,49.531376 122.955559,42.887962 
	C118.486763,42.887962 114.561752,42.887962 110.045273,42.887962 
	C110.045273,38.479858 110.045273,34.439682 110.045273,30.468893 
	C103.217957,30.043505 103.288055,30.144009 98.026009,33.814289 
	C96.715279,34.728523 94.792213,34.764851 93.150589,35.204685 
	C92.996483,34.724560 92.842377,34.244438 92.688278,33.764313 
	C94.089600,32.861061 95.490921,31.957811 97.242584,30.828747 
	C89.086288,29.538328 88.253693,29.825418 81.948944,33.952332 
	C80.667465,34.791149 78.775757,34.697701 77.165359,35.034023 
	C77.056702,34.545841 76.948036,34.057659 76.839371,33.569477 
	C78.290565,32.637356 79.741768,31.705231 82.325714,30.045527 
	C77.736900,30.045527 74.603615,30.138937 71.478447,30.019722 
	C68.237228,29.896078 66.975052,31.419342 67.051529,34.534374 
	C67.141342,38.192295 67.071770,41.854130 67.071327,46.508854 
M210.167587,77.942963 
	C226.706955,75.492828 236.419479,62.692783 233.971237,46.572346 
	C231.773727,32.102871 217.966766,22.484974 202.785934,24.848745 
	C189.093246,26.980804 179.844543,39.386990 180.937225,54.156521 
	C181.941116,67.725800 194.264404,78.085754 210.167587,77.942963 
M180.499786,172.398773 
	C187.495270,172.394592 194.495193,172.544022 201.484940,172.341629 
	C208.049225,172.151566 211.128128,168.596817 210.671295,162.378754 
	C155.974548,162.378754 101.284775,162.378754 46.571545,162.378754 
	C47.143745,169.920578 49.996891,172.384995 58.076359,172.389160 
	C98.550819,172.409973 139.025299,172.398758 180.499786,172.398773 
M116.475304,200.838577 
	C116.709915,201.207291 116.942238,201.896530 117.179466,201.898239 
	C125.042152,201.954361 132.905304,201.944702 141.014496,201.944702 
	C138.990982,192.633270 137.094818,183.907745 135.194061,175.161163 
	C130.678986,175.161163 126.539314,175.161163 122.000183,175.161163 
	C120.236504,183.432663 118.478951,191.675430 116.475304,200.838577 
M141.489212,212.103531 
	C144.313538,212.103409 147.137909,212.115402 149.962158,212.099442 
	C152.306580,212.086182 154.888046,212.370270 154.790588,208.794205 
	C154.696365,205.336365 152.432770,205.002640 149.645172,205.015717 
	C135.689987,205.081161 121.734299,205.063232 107.778885,205.030136 
	C105.105408,205.023804 102.702911,205.033249 102.762444,208.768494 
	C102.818932,212.311874 105.197899,212.109818 107.596436,212.107361 
	C118.561447,212.096130 129.526474,212.103104 141.489212,212.103531 
M113.717087,33.108936 
	C113.315025,35.307415 112.912971,37.505890 112.504814,39.737762 
	C115.435242,39.737762 117.571053,39.737762 119.706863,39.737762 
	C119.900757,39.412159 120.094643,39.086555 120.288536,38.760952 
	C118.299026,37.055779 116.309525,35.350605 113.717087,33.108936 
M90.347260,27.343922 
	C92.693420,27.343922 95.039574,27.343922 97.611504,27.343922 
	C94.764412,22.923725 93.437225,22.866947 90.347260,27.343922 
M79.163322,24.097013 
	C77.417168,24.805304 75.671013,25.513594 73.924866,26.221884 
	C74.120628,26.588568 74.316391,26.955250 74.512154,27.321934 
	C76.901886,27.321934 79.291611,27.321934 82.449425,27.321934 
	C81.266693,25.980814 80.566452,25.186796 79.163322,24.097013 
z"/>
<path fill="#D5D5D5" opacity="1.000000" stroke="none" 
	d="
M46.656067,34.264267 
	C48.970440,34.460033 50.830677,34.655781 53.255905,34.910984 
	C50.299091,37.584274 35.975498,38.113869 30.711508,36.293396 
	C32.415516,34.264202 32.415516,34.264202 46.656067,34.264267 
z"/>
<path fill="#E5E5E5" opacity="1.000000" stroke="none" 
	d="
M160.425079,29.095238 
	C161.199142,25.104563 163.479050,22.743015 167.058609,23.752602 
	C168.983765,24.295578 171.561066,26.968184 171.572174,28.694500 
	C171.585098,30.704056 169.519089,33.822903 167.636139,34.521221 
	C163.684174,35.986866 161.002106,33.773262 160.425079,29.095238 
M168.849884,28.116226 
	C167.237305,25.928249 165.265747,25.503248 163.810135,27.918213 
	C163.316666,28.736916 164.094177,31.366835 164.932526,31.744408 
	C167.312729,32.816402 169.060059,31.824999 168.849884,28.116226 
z"/>
<path fill="#E5E5E5" opacity="1.000000" stroke="none" 
	d="
M23.200970,144.208282 
	C27.145929,142.687149 30.171413,143.764389 30.909636,147.441299 
	C31.289486,149.333252 29.952715,152.889999 28.481524,153.500229 
	C26.630556,154.267975 23.094152,153.553009 21.637451,152.111298 
	C19.193830,149.692841 20.054279,146.595093 23.200970,144.208282 
M23.299534,147.899002 
	C24.325254,149.220276 25.350977,150.541550 26.376699,151.862823 
	C27.104700,150.578796 28.710989,148.982834 28.387579,148.072235 
	C27.582394,145.805130 25.681442,145.297043 23.299534,147.899002 
z"/>
<path fill="#E5E5E5" opacity="1.000000" stroke="none" 
	d="
M219.424713,139.688187 
	C221.302902,136.019501 224.313599,134.445770 227.273575,136.529556 
	C229.014618,137.755234 230.331375,141.380722 229.824493,143.428085 
	C229.426193,145.036835 225.900299,146.919632 223.836655,146.837967 
	C220.138260,146.691620 218.750153,143.696121 219.424713,139.688187 
M222.039536,142.373108 
	C223.782028,142.648911 225.524521,142.924713 227.267029,143.200500 
	C227.069550,141.903702 227.325363,139.928375 226.589828,139.437027 
	C224.359787,137.947281 222.538300,138.703918 222.039536,142.373108 
z"/>
<path fill="#EDEDED" opacity="1.000000" stroke="none" 
	d="
M209.431122,197.918610 
	C208.899857,196.965515 208.825760,196.095184 208.751663,195.224838 
	C215.726212,195.224838 222.700760,195.224838 229.675308,195.224838 
	C229.696396,195.973511 229.717484,196.722183 229.738571,197.470856 
	C226.615143,197.622101 223.493149,197.829025 220.367905,197.909775 
	C216.876236,198.000000 213.381638,197.975769 209.431122,197.918610 
z"/>
<path fill="#EDEDED" opacity="1.000000" stroke="none" 
	d="
M74.714401,196.948242 
	C68.260292,196.906616 62.276913,196.906616 56.293537,196.906616 
	C58.938488,193.445023 74.096901,193.167679 79.057732,195.708221 
	C77.324318,196.281906 76.254730,196.635880 74.714401,196.948242 
z"/>
<path fill="#DEDEDE" opacity="1.000000" stroke="none" 
	d="
M224.198776,95.149719 
	C224.375931,92.448959 224.553101,90.220680 224.730255,87.992401 
	C225.326035,88.029655 225.921829,88.066910 226.517609,88.104164 
	C226.517609,94.835686 226.517609,101.567215 226.517609,108.343666 
	C224.198776,107.025574 224.198776,107.025574 224.198776,95.149719 
z"/>
<path fill="#E0E0E0" opacity="1.000000" stroke="none" 
	d="
M33.875713,111.781242 
	C33.875713,106.649734 33.875713,101.985863 33.875713,96.473358 
	C37.340672,99.572250 37.775780,113.846573 34.696930,119.079247 
	C34.327621,116.007568 34.101669,114.128220 33.875713,111.781242 
z"/>
<path fill="#E2E2E2" opacity="1.000000" stroke="none" 
	d="
M18.749439,41.584435 
	C24.135683,41.334209 29.218729,40.604137 34.097542,41.808285 
	C34.079807,42.488937 34.062073,43.169590 34.044334,43.850243 
	C28.963129,43.850243 23.881556,43.868362 18.802437,43.765400 
	C18.645144,43.762211 18.513294,42.503826 18.749439,41.584435 
z"/>
<path fill="#E5E5E5" opacity="1.000000" stroke="none" 
	d="
M76.444786,187.166016 
	C81.328178,187.252319 85.755295,187.390762 90.177879,187.617554 
	C90.460709,187.632050 90.708443,188.331024 91.764435,189.852875 
	C85.868584,189.852875 80.777786,189.852875 75.686996,189.852875 
	C75.787155,188.981415 75.887306,188.109955 76.444786,187.166016 
z"/>
<path fill="#D5D5D5" opacity="1.000000" stroke="none" 
	d="
M26.471474,35.168686 
	C24.053091,38.866364 20.998066,36.989948 18.049324,36.680378 
	C18.012440,36.086143 17.975554,35.491913 17.938669,34.897678 
	C20.690630,34.897678 23.442593,34.897678 26.471474,35.168686 
z"/>
<path fill="#FFFFFF" opacity="1.000000" stroke="none" 
	d="
M205.903534,201.683167 
	C207.930725,201.800949 209.471664,201.918716 211.649597,202.085190 
	C208.515244,204.682266 199.892761,205.044205 194.928818,202.111984 
	C198.424973,201.969040 201.921112,201.826096 205.903534,201.683167 
z"/>
<path fill="#E2E2E2" opacity="1.000000" stroke="none" 
	d="
M195.225739,196.051117 
	C198.228210,195.483505 201.057785,195.306686 203.887360,195.129852 
	C203.898926,195.795059 203.910492,196.460251 203.922058,197.125458 
	C200.973755,198.106750 198.026489,199.243622 195.225739,196.051117 
z"/>
<path fill="#040404" opacity="1.000000" stroke="none" 
	d="
M211.104218,137.999878 
	C211.104218,145.150345 211.104218,151.800827 211.104218,158.780334 
	C156.187317,158.780334 101.464088,158.780334 46.303112,158.780334 
	C46.303112,156.265259 46.303356,153.814987 46.303070,151.364700 
	C46.300026,125.200195 46.295799,99.035683 46.294304,72.871178 
	C46.293659,61.556641 48.734402,59.140408 60.095421,59.227875 
	C61.401405,59.237926 62.706688,59.339375 64.647339,59.427185 
	C64.647339,65.884193 64.648247,72.153839 64.647102,78.423492 
	C64.645828,85.422913 64.707108,92.423149 64.617592,99.421455 
	C64.558403,104.049370 66.741890,106.076950 71.308693,106.060936 
	C87.140526,106.005424 102.972710,106.025208 118.804703,106.048325 
	C123.361237,106.054977 125.481491,103.890938 125.452179,99.304626 
	C125.378693,87.806038 125.423347,76.306686 125.420746,64.807640 
	C125.420372,63.164566 125.420700,61.521492 125.420700,59.638145 
	C126.886581,59.472221 127.993721,59.239437 129.101227,59.237728 
	C144.599915,59.213799 160.098862,59.262306 175.597153,59.178921 
	C178.026459,59.165852 179.307480,59.690273 180.396103,62.220539 
	C185.961487,75.156006 196.109863,81.270721 211.104202,80.743340 
	C211.104202,99.673172 211.104202,118.586540 211.104218,137.999878 
M148.730927,108.546753 
	C148.730927,109.997948 148.730927,111.449150 148.730927,112.741104 
	C145.902512,113.831680 143.341370,114.819199 140.780228,115.806725 
	C140.933212,116.331711 141.086197,116.856697 141.239197,117.381683 
	C144.023148,116.901260 146.807114,116.420830 149.713364,115.919304 
	C150.574738,117.626923 151.367065,119.197670 152.143341,120.736572 
	C151.460098,121.485748 151.058411,122.017952 150.568329,122.449791 
	C143.407700,128.759369 136.077393,134.891830 129.214783,141.509567 
	C128.013885,142.667603 127.929298,146.349075 128.877579,147.945099 
	C129.659760,149.261581 133.774216,150.365662 134.625641,149.593658 
	C141.388397,143.461899 148.238281,137.281326 154.009979,130.252365 
	C157.861603,125.561745 157.090897,124.928894 161.856598,128.678192 
	C161.462753,131.338425 161.083130,133.902557 160.703522,136.466690 
	C161.219543,136.584930 161.735565,136.703171 162.251587,136.821426 
	C163.195633,134.177872 164.139664,131.534332 165.025772,129.053024 
	C167.822845,129.053024 170.266342,129.053024 172.548035,129.053024 
	C173.565323,131.844177 174.496048,134.397797 175.426773,136.951431 
	C175.968552,136.777878 176.510345,136.604324 177.052139,136.430786 
	C176.543900,133.781723 176.035675,131.132660 175.489609,128.286438 
	C177.511978,127.054535 179.588104,125.789871 181.878922,124.394432 
	C183.947083,126.281876 186.060120,128.210251 188.173157,130.138641 
	C188.655487,129.706894 189.137833,129.275146 189.620178,128.843399 
	C187.784790,126.650299 185.949387,124.457207 184.027557,122.160820 
	C185.252792,120.094109 186.497482,117.994583 187.707764,115.953079 
	C190.689026,116.431465 193.450180,116.874527 196.211334,117.317589 
	C196.367554,116.767982 196.523758,116.218376 196.679962,115.668762 
	C194.114182,114.650200 191.548401,113.631645 189.145462,112.677727 
	C189.145462,109.941544 189.145462,107.509941 189.145462,105.210533 
	C192.006287,104.221779 194.600586,103.325142 197.194885,102.428505 
	C197.041367,101.889862 196.887848,101.351219 196.734329,100.812576 
	C193.908096,101.250740 191.081848,101.688904 188.184555,102.138084 
	C186.840042,99.745361 185.591354,97.523132 184.139420,94.939232 
	C185.365067,93.871078 186.559158,92.954132 187.598984,91.886871 
	C188.506836,90.955086 189.240936,89.854027 190.051804,88.827751 
	C189.659760,88.428101 189.267715,88.028458 188.875671,87.628807 
	C186.624893,89.473145 184.374115,91.317482 182.025360,93.242111 
	C179.753113,91.990036 177.471619,90.732864 175.226486,89.495743 
	C175.829590,86.625450 176.402161,83.900368 176.974747,81.175285 
	C176.373611,80.997032 175.772461,80.818779 175.171326,80.640533 
	C174.184662,83.340973 173.197998,86.041412 172.282562,88.546906 
	C169.637436,88.546906 167.216568,88.546906 164.910797,88.546906 
	C163.920853,85.754570 163.030350,83.242737 162.139862,80.730911 
	C161.573257,80.867439 161.006668,81.003975 160.440079,81.140503 
	C160.930771,83.981712 161.421478,86.822922 161.949356,89.879387 
	C159.835678,91.060158 157.714096,92.245338 155.653839,93.396271 
	C153.331635,91.415543 151.196182,89.594093 149.060730,87.772644 
	C148.596909,88.206192 148.133102,88.639732 147.669281,89.073280 
	C149.501053,91.287270 151.332840,93.501259 153.247009,95.814835 
	C152.041351,97.935982 150.822067,100.081131 149.553436,102.313080 
	C146.741867,101.835510 143.992554,101.368523 141.243240,100.901527 
	C141.099380,101.405685 140.955521,101.909836 140.811661,102.413994 
	C142.493668,103.014282 144.335114,103.362289 145.808075,104.293320 
	C147.023514,105.061569 147.802902,106.519722 148.730927,108.546753 
M111.305161,129.273285 
	C113.904030,129.273285 116.502899,129.273285 119.101768,129.273285 
	C115.264137,125.326294 58.791122,125.651611 55.442383,129.273239 
	C74.331627,129.273239 92.339508,129.273239 111.305161,129.273285 
M86.499451,119.253853 
	C97.362282,119.253853 108.225121,119.253853 119.087952,119.253853 
	C115.451683,115.585480 59.557693,115.648705 56.243645,119.253815 
	C65.995567,119.253815 75.747490,119.253815 86.499451,119.253853 
M114.255219,139.102524 
	C115.875717,138.925949 117.496216,138.749359 120.124023,138.463028 
	C115.586113,135.319763 58.988190,135.537186 55.081779,139.102509 
	C75.331688,139.102509 94.315727,139.102509 114.255219,139.102524 
M73.502319,149.118973 
	C82.610588,149.118973 91.718849,149.118973 100.827118,149.118973 
	C97.291611,145.217606 58.731518,145.575851 55.535248,149.118973 
	C61.763657,149.118973 67.133667,149.118973 73.502319,149.118973 
z"/>
<path fill="#020202" opacity="1.000000" stroke="none" 
	d="
M67.071327,46.011559 
	C67.071770,41.854130 67.141342,38.192295 67.051529,34.534374 
	C66.975052,31.419342 68.237228,29.896078 71.478447,30.019722 
	C74.603615,30.138937 77.736900,30.045527 82.325714,30.045527 
	C79.741768,31.705231 78.290565,32.637356 76.839371,33.569477 
	C76.948036,34.057659 77.056702,34.545841 77.165359,35.034023 
	C78.775757,34.697701 80.667465,34.791149 81.948944,33.952332 
	C88.253693,29.825418 89.086288,29.538328 97.242584,30.828747 
	C95.490921,31.957811 94.089600,32.861061 92.688278,33.764313 
	C92.842377,34.244438 92.996483,34.724560 93.150589,35.204685 
	C94.792213,34.764851 96.715279,34.728523 98.026009,33.814289 
	C103.288055,30.144009 103.217957,30.043505 110.045273,30.468893 
	C110.045273,34.439682 110.045273,38.479858 110.045273,42.887962 
	C114.561752,42.887962 118.486763,42.887962 122.955559,42.887962 
	C122.955559,49.531376 122.955559,55.789993 122.955551,62.048615 
	C122.955551,74.027252 122.828613,86.008003 123.028542,97.983299 
	C123.093216,101.857315 121.976891,103.243103 117.935356,103.188324 
	C102.632133,102.980942 87.322472,102.970695 72.019684,103.193413 
	C67.873260,103.253761 66.972176,101.684967 67.005379,97.916557 
	C67.156380,80.781792 67.071411,63.644947 67.071327,46.011559 
M82.032600,55.954830 
	C90.498558,55.934219 98.965271,55.965618 107.429710,55.841419 
	C108.828247,55.820900 110.216797,55.119255 111.609970,54.732384 
	C111.473511,54.368404 111.337051,54.004429 111.200584,53.640450 
	C100.244751,53.640450 89.288910,53.640450 78.333069,53.640450 
	C78.287125,54.020870 78.241180,54.401295 78.195236,54.781715 
	C79.181442,55.192795 80.167648,55.603874 82.032600,55.954830 
M102.402557,62.921520 
	C94.375435,63.047363 86.315796,62.666759 78.348358,63.721985 
	C82.062904,66.789986 109.034363,66.412109 112.345070,62.921520 
	C108.699928,62.921520 106.032265,62.921520 102.402557,62.921520 
M103.425278,75.865578 
	C109.751534,75.888275 109.751534,75.888275 111.236397,73.635452 
	C100.232582,73.635452 89.296059,73.635452 78.359528,73.635452 
	C78.556725,75.063431 79.093880,75.721573 79.639420,75.728592 
	C87.239998,75.826408 94.841728,75.835129 103.425278,75.865578 
M93.381783,85.733696 
	C96.374840,85.537544 99.367905,85.341400 102.360962,85.145248 
	C102.304337,84.444901 102.247719,83.744545 102.191093,83.044189 
	C94.234734,82.725716 86.279266,82.439789 78.352013,83.187172 
	C78.348480,84.036003 78.344948,84.884842 78.341415,85.733673 
	C83.034851,85.733673 87.728287,85.733673 93.381783,85.733696 
z"/>
<path fill="#050505" opacity="1.000000" stroke="none" 
	d="
M209.729324,77.967995 
	C194.264404,78.085754 181.941116,67.725800 180.937225,54.156521 
	C179.844543,39.386990 189.093246,26.980804 202.785934,24.848745 
	C217.966766,22.484974 231.773727,32.102871 233.971237,46.572346 
	C236.419479,62.692783 226.706955,75.492828 209.729324,77.967995 
M204.011932,51.398277 
	C206.930634,55.069611 209.849335,58.740940 212.768036,62.412270 
	C213.200058,62.148861 213.632080,61.885452 214.064102,61.622047 
	C213.232468,59.795498 212.500061,57.915298 211.547577,56.154114 
	C209.824829,52.968658 210.680527,50.911957 213.977783,49.574165 
	C216.888489,48.393215 219.759445,47.101974 222.586273,45.732151 
	C223.866409,45.111832 224.997162,44.183228 226.195694,43.394478 
	C224.953018,42.278297 224.137543,42.079273 223.470261,42.309593 
	C217.827316,44.257324 213.071121,48.810867 206.409973,47.933987 
	C205.743042,47.846191 204.820847,49.697453 204.011932,51.398277 
z"/>
<path fill="#010101" opacity="1.000000" stroke="none" 
	d="
M179.999786,172.398788 
	C139.025299,172.398758 98.550819,172.409973 58.076359,172.389160 
	C49.996891,172.384995 47.143745,169.920578 46.571545,162.378754 
	C101.284775,162.378754 155.974548,162.378754 210.671295,162.378754 
	C211.128128,168.596817 208.049225,172.151566 201.484940,172.341629 
	C194.495193,172.544022 187.495270,172.394592 179.999786,172.398788 
z"/>
<path fill="#040404" opacity="1.000000" stroke="none" 
	d="
M116.598351,200.378387 
	C118.478951,191.675430 120.236504,183.432663 122.000183,175.161163 
	C126.539314,175.161163 130.678986,175.161163 135.194061,175.161163 
	C137.094818,183.907745 138.990982,192.633270 141.014496,201.944702 
	C132.905304,201.944702 125.042152,201.954361 117.179466,201.898239 
	C116.942238,201.896530 116.709915,201.207291 116.598351,200.378387 
z"/>
<path fill="#010101" opacity="1.000000" stroke="none" 
	d="
M140.990356,212.103531 
	C129.526474,212.103104 118.561447,212.096130 107.596436,212.107361 
	C105.197899,212.109818 102.818932,212.311874 102.762444,208.768494 
	C102.702911,205.033249 105.105408,205.023804 107.778885,205.030136 
	C121.734299,205.063232 135.689987,205.081161 149.645172,205.015717 
	C152.432770,205.002640 154.696365,205.336365 154.790588,208.794205 
	C154.888046,212.370270 152.306580,212.086182 149.962158,212.099442 
	C147.137909,212.115402 144.313538,212.103409 140.990356,212.103531 
z"/>
<path fill="#010101" opacity="1.000000" stroke="none" 
	d="
M114.018555,33.377182 
	C116.309525,35.350605 118.299026,37.055779 120.288536,38.760952 
	C120.094643,39.086555 119.900757,39.412159 119.706863,39.737762 
	C117.571053,39.737762 115.435242,39.737762 112.504814,39.737762 
	C112.912971,37.505890 113.315025,35.307415 114.018555,33.377182 
z"/>
<path fill="#333333" opacity="1.000000" stroke="none" 
	d="
M90.161659,26.993652 
	C93.437225,22.866947 94.764412,22.923725 97.611504,27.343922 
	C95.039574,27.343922 92.693420,27.343922 90.161659,26.993652 
z"/>
<path fill="#333333" opacity="1.000000" stroke="none" 
	d="
M79.514771,24.244896 
	C80.566452,25.186796 81.266693,25.980814 82.449425,27.321934 
	C79.291611,27.321934 76.901886,27.321934 74.512154,27.321934 
	C74.316391,26.955250 74.120628,26.588568 73.924866,26.221884 
	C75.671013,25.513594 77.417168,24.805304 79.514771,24.244896 
z"/>
<path fill="#111111" opacity="1.000000" stroke="none" 
	d="
M168.944916,28.492092 
	C169.060059,31.824999 167.312729,32.816402 164.932526,31.744408 
	C164.094177,31.366835 163.316666,28.736916 163.810135,27.918213 
	C165.265747,25.503248 167.237305,25.928249 168.944916,28.492092 
z"/>
<path fill="#111111" opacity="1.000000" stroke="none" 
	d="
M23.519562,147.593185 
	C25.681442,145.297043 27.582394,145.805130 28.387579,148.072235 
	C28.710989,148.982834 27.104700,150.578796 26.376699,151.862823 
	C25.350977,150.541550 24.325254,149.220276 23.519562,147.593185 
z"/>
<path fill="#0A0A0A" opacity="1.000000" stroke="none" 
	d="
M221.999756,141.958801 
	C222.538300,138.703918 224.359787,137.947281 226.589828,139.437027 
	C227.325363,139.928375 227.069550,141.903702 227.267029,143.200500 
	C225.524521,142.924713 223.782028,142.648911 221.999756,141.958801 
z"/>
<path fill="#E8E8E8" opacity="1.000000" stroke="none" 
	d="
M148.753220,108.109451 
	C147.802902,106.519722 147.023514,105.061569 145.808075,104.293320 
	C144.335114,103.362289 142.493668,103.014282 140.811661,102.413994 
	C140.955521,101.909836 141.099380,101.405685 141.243240,100.901527 
	C143.992554,101.368523 146.741867,101.835510 149.553436,102.313080 
	C150.822067,100.081131 152.041351,97.935982 153.247009,95.814835 
	C151.332840,93.501259 149.501053,91.287270 147.669281,89.073280 
	C148.133102,88.639732 148.596909,88.206192 149.060730,87.772644 
	C151.196182,89.594093 153.331635,91.415543 155.653839,93.396271 
	C157.714096,92.245338 159.835678,91.060158 161.949356,89.879387 
	C161.421478,86.822922 160.930771,83.981712 160.440079,81.140503 
	C161.006668,81.003975 161.573257,80.867439 162.139862,80.730911 
	C163.030350,83.242737 163.920853,85.754570 164.910797,88.546906 
	C167.216568,88.546906 169.637436,88.546906 172.282562,88.546906 
	C173.197998,86.041412 174.184662,83.340973 175.171326,80.640533 
	C175.772461,80.818779 176.373611,80.997032 176.974747,81.175285 
	C176.402161,83.900368 175.829590,86.625450 175.226486,89.495743 
	C177.471619,90.732864 179.753113,91.990036 182.025360,93.242111 
	C184.374115,91.317482 186.624893,89.473145 188.875671,87.628807 
	C189.267715,88.028458 189.659760,88.428101 190.051804,88.827751 
	C189.240936,89.854027 188.506836,90.955086 187.598984,91.886871 
	C186.559158,92.954132 185.365067,93.871078 184.139420,94.939232 
	C185.591354,97.523132 186.840042,99.745361 188.184555,102.138084 
	C191.081848,101.688904 193.908096,101.250740 196.734329,100.812576 
	C196.887848,101.351219 197.041367,101.889862 197.194885,102.428505 
	C194.600586,103.325142 192.006287,104.221779 189.145462,105.210533 
	C189.145462,107.509941 189.145462,109.941544 189.145462,112.677727 
	C191.548401,113.631645 194.114182,114.650200 196.679962,115.668762 
	C196.523758,116.218376 196.367554,116.767982 196.211334,117.317589 
	C193.450180,116.874527 190.689026,116.431465 187.707764,115.953079 
	C186.497482,117.994583 185.252792,120.094109 184.027557,122.160820 
	C185.949387,124.457207 187.784790,126.650299 189.620178,128.843399 
	C189.137833,129.275146 188.655487,129.706894 188.173157,130.138641 
	C186.060120,128.210251 183.947083,126.281876 181.878922,124.394432 
	C179.588104,125.789871 177.511978,127.054535 175.489609,128.286438 
	C176.035675,131.132660 176.543900,133.781723 177.052139,136.430786 
	C176.510345,136.604324 175.968552,136.777878 175.426773,136.951431 
	C174.496048,134.397797 173.565323,131.844177 172.548035,129.053024 
	C170.266342,129.053024 167.822845,129.053024 165.025772,129.053024 
	C164.139664,131.534332 163.195633,134.177872 162.251587,136.821426 
	C161.735565,136.703171 161.219543,136.584930 160.703522,136.466690 
	C161.083130,133.902557 161.462753,131.338425 161.856598,128.678192 
	C157.090897,124.928894 157.861603,125.561745 154.009979,130.252365 
	C148.238281,137.281326 141.388397,143.461899 134.625641,149.593658 
	C133.774216,150.365662 129.659760,149.261581 128.877579,147.945099 
	C127.929298,146.349075 128.013885,142.667603 129.214783,141.509567 
	C136.077393,134.891830 143.407700,128.759369 150.568329,122.449791 
	C151.058411,122.017952 151.460098,121.485748 152.143341,120.736572 
	C151.367065,119.197670 150.574738,117.626923 149.713364,115.919304 
	C146.807114,116.420830 144.023148,116.901260 141.239197,117.381683 
	C141.086197,116.856697 140.933212,116.331711 140.780228,115.806725 
	C143.341370,114.819199 145.902512,113.831680 148.730927,112.741104 
	C148.730927,111.449150 148.730927,109.997948 148.753220,108.109451 
M153.935074,99.660027 
	C148.549423,110.121185 152.225189,121.180450 162.447464,125.271240 
	C171.834305,129.027695 182.231964,123.871033 185.413177,113.881508 
	C187.979828,105.821846 184.414536,97.334274 176.741898,93.238602 
	C169.124725,89.172531 160.587616,91.364655 153.935074,99.660027 
M131.249023,147.066040 
	C132.388306,146.916931 133.904602,147.186325 134.607635,146.552963 
	C140.605042,141.149780 146.454834,135.582733 152.600769,129.828842 
	C150.625336,127.940361 149.623306,126.982422 147.462051,124.916283 
	C142.057022,130.851028 136.753433,136.530655 131.671082,142.401810 
	C130.860001,143.338776 131.041168,145.134705 131.249023,147.066040 
z"/>
<path fill="#D5D5D5" opacity="1.000000" stroke="none" 
	d="
M110.826279,129.273254 
	C92.339508,129.273239 74.331627,129.273239 55.442383,129.273239 
	C58.791122,125.651611 115.264137,125.326294 119.101768,129.273285 
	C116.502899,129.273285 113.904030,129.273285 110.826279,129.273254 
z"/>
<path fill="#D6D6D6" opacity="1.000000" stroke="none" 
	d="
M85.999435,119.253830 
	C75.747490,119.253815 65.995567,119.253815 56.243645,119.253815 
	C59.557693,115.648705 115.451683,115.585480 119.087952,119.253853 
	C108.225121,119.253853 97.362282,119.253853 85.999435,119.253830 
z"/>
<path fill="#E5E5E5" opacity="1.000000" stroke="none" 
	d="
M113.777496,139.102509 
	C94.315727,139.102509 75.331688,139.102509 55.081779,139.102509 
	C58.988190,135.537186 115.586113,135.319763 120.124023,138.463028 
	C117.496216,138.749359 115.875717,138.925949 113.777496,139.102509 
z"/>
<path fill="#E2E2E2" opacity="1.000000" stroke="none" 
	d="
M73.002991,149.118973 
	C67.133667,149.118973 61.763657,149.118973 55.535248,149.118973 
	C58.731518,145.575851 97.291611,145.217606 100.827118,149.118973 
	C91.718849,149.118973 82.610588,149.118973 73.002991,149.118973 
z"/>
<path fill="#E5E5E5" opacity="1.000000" stroke="none" 
	d="
M81.593231,55.984894 
	C80.167648,55.603874 79.181442,55.192795 78.195236,54.781715 
	C78.241180,54.401295 78.287125,54.020870 78.333069,53.640450 
	C89.288910,53.640450 100.244751,53.640450 111.200584,53.640450 
	C111.337051,54.004429 111.473511,54.368404 111.609970,54.732384 
	C110.216797,55.119255 108.828247,55.820900 107.429710,55.841419 
	C98.965271,55.965618 90.498558,55.934219 81.593231,55.984894 
z"/>
<path fill="#E6E6E6" opacity="1.000000" stroke="none" 
	d="
M102.883575,62.921520 
	C106.032265,62.921520 108.699928,62.921520 112.345070,62.921520 
	C109.034363,66.412109 82.062904,66.789986 78.348358,63.721985 
	C86.315796,62.666759 94.375435,63.047363 102.883575,62.921520 
z"/>
<path fill="#E8E8E8" opacity="1.000000" stroke="none" 
	d="
M102.934227,75.865578 
	C94.841728,75.835129 87.239998,75.826408 79.639420,75.728592 
	C79.093880,75.721573 78.556725,75.063431 78.359528,73.635452 
	C89.296059,73.635452 100.232582,73.635452 111.236397,73.635452 
	C109.751534,75.888275 109.751534,75.888275 102.934227,75.865578 
z"/>
<path fill="#DADADA" opacity="1.000000" stroke="none" 
	d="
M92.901749,85.733688 
	C87.728287,85.733673 83.034851,85.733673 78.341415,85.733673 
	C78.344948,84.884842 78.348480,84.036003 78.352013,83.187172 
	C86.279266,82.439789 94.234734,82.725716 102.191093,83.044189 
	C102.247719,83.744545 102.304337,84.444901 102.360962,85.145248 
	C99.367905,85.341400 96.374840,85.537544 92.901749,85.733688 
z"/>
<path fill="#E8E8E8" opacity="1.000000" stroke="none" 
	d="
M204.014526,51.023537 
	C204.820847,49.697453 205.743042,47.846191 206.409973,47.933987 
	C213.071121,48.810867 217.827316,44.257324 223.470261,42.309593 
	C224.137543,42.079273 224.953018,42.278297 226.195694,43.394478 
	C224.997162,44.183228 223.866409,45.111832 222.586273,45.732151 
	C219.759445,47.101974 216.888489,48.393215 213.977783,49.574165 
	C210.680527,50.911957 209.824829,52.968658 211.547577,56.154114 
	C212.500061,57.915298 213.232468,59.795498 214.064102,61.622047 
	C213.632080,61.885452 213.200058,62.148861 212.768036,62.412270 
	C209.849335,58.740940 206.930634,55.069611 204.014526,51.023537 
z"/>
<path fill="#0A0A0A" opacity="1.000000" stroke="none" 
	d="
M154.116562,99.330826 
	C160.587616,91.364655 169.124725,89.172531 176.741898,93.238602 
	C184.414536,97.334274 187.979828,105.821846 185.413177,113.881508 
	C182.231964,123.871033 171.834305,129.027695 162.447464,125.271240 
	C152.225189,121.180450 148.549423,110.121185 154.116562,99.330826 
M179.073441,113.256516 
	C180.695145,107.301956 179.195465,102.580627 174.761353,99.681061 
	C170.669189,97.005104 165.346451,97.236725 161.774429,100.305138 
	C158.141922,103.425491 156.829926,107.440628 158.079727,111.990547 
	C159.337524,116.569603 162.674820,119.260521 167.313477,120.023155 
	C172.560181,120.885750 176.297577,118.511330 179.073441,113.256516 
z"/>
<path fill="#111111" opacity="1.000000" stroke="none" 
	d="
M131.006317,146.799774 
	C131.041168,145.134705 130.860001,143.338776 131.671082,142.401810 
	C136.753433,136.530655 142.057022,130.851028 147.462051,124.916283 
	C149.623306,126.982422 150.625336,127.940361 152.600769,129.828842 
	C146.454834,135.582733 140.605042,141.149780 134.607635,146.552963 
	C133.904602,147.186325 132.388306,146.916931 131.006317,146.799774 
z"/>
<path fill="#E9E9E9" opacity="1.000000" stroke="none" 
	d="
M178.948639,113.626846 
	C176.297577,118.511330 172.560181,120.885750 167.313477,120.023155 
	C162.674820,119.260521 159.337524,116.569603 158.079727,111.990547 
	C156.829926,107.440628 158.141922,103.425491 161.774429,100.305138 
	C165.346451,97.236725 170.669189,97.005104 174.761353,99.681061 
	C179.195465,102.580627 180.695145,107.301956 178.948639,113.626846 
M171.738602,116.799416 
	C175.652893,115.038818 178.226456,111.959724 176.925217,107.803802 
	C176.117172,105.223061 173.659027,102.487083 171.217651,101.254005 
	C167.916824,99.586876 164.335297,100.923630 161.963577,103.977470 
	C159.692017,106.902367 159.803085,110.145935 161.601227,113.296471 
	C163.704651,116.981880 166.924622,118.024902 171.738602,116.799416 
z"/>
<path fill="#060606" opacity="1.000000" stroke="none" 
	d="
M171.335373,116.896561 
	C166.924622,118.024902 163.704651,116.981880 161.601227,113.296471 
	C159.803085,110.145935 159.692017,106.902367 161.963577,103.977470 
	C164.335297,100.923630 167.916824,99.586876 171.217651,101.254005 
	C173.659027,102.487083 176.117172,105.223061 176.925217,107.803802 
	C178.226456,111.959724 175.652893,115.038818 171.335373,116.896561 
z"/>
</svg>