<svg version="1.1" id="Layer_1" xmlns="http://www.w3.org/2000/svg" xmlns:xlink="http://www.w3.org/1999/xlink" x="0px" y="0px"
	 width="100%" viewBox="0 0 867 227" enable-background="new 0 0 867 227" xml:space="preserve">
<path fill="#020202" opacity="1.000000" stroke="none" 
	d="
M576.000000,228.000000 
	C384.043762,228.000000 192.587509,228.000000 1.065627,228.000000 
	C1.065627,152.394424 1.065627,76.788765 1.065627,1.091557 
	C290.000000,1.091557 579.000000,1.091557 867.966553,1.091557 
	C867.966553,76.745804 867.966553,152.372910 867.966553,228.000000 
	C770.788757,228.000000 673.644409,228.000000 576.000000,228.000000 
M692.397949,217.770599 
	C738.112793,217.581985 783.510742,213.574188 828.812012,207.532379 
	C839.204773,206.146301 845.195251,201.179947 849.533020,192.851059 
	C851.510742,189.053650 853.457825,184.901474 853.951416,180.736328 
	C855.201904,170.184006 855.556091,159.528076 856.389343,148.923080 
	C858.148682,126.530983 860.355774,104.165649 861.610168,81.746315 
	C862.126038,72.525818 861.451355,63.059326 859.900391,53.946041 
	C857.754883,41.340023 852.563599,30.363979 840.284302,23.734646 
	C822.689209,14.235423 803.843018,9.786452 784.166809,9.816910 
	C762.202026,9.850910 740.242798,11.382700 718.275085,12.066639 
	C688.463318,12.994792 658.640259,13.576904 628.831970,14.596469 
	C584.875549,16.099953 540.937866,18.824392 496.974060,19.279036 
	C432.660156,19.944130 368.327118,18.580080 304.008148,18.997229 
	C258.196991,19.294338 212.329849,19.950726 166.609039,22.567427 
	C124.255821,24.991390 82.036659,29.975088 39.822933,34.440933 
	C31.067137,35.367222 22.294588,38.236668 14.087739,41.580158 
	C7.614108,44.217529 6.586114,49.467636 9.888090,55.703201 
	C12.367948,60.386253 15.209959,64.911758 18.249678,69.256271 
	C23.065685,76.139549 29.409843,82.094704 30.268290,90.342628 
	C33.046593,90.921631 35.255386,91.077782 37.213482,91.860825 
	C40.201569,93.055771 42.936966,94.884743 45.928478,96.068352 
	C48.583427,97.118790 51.441059,97.656975 54.870361,98.603821 
	C46.036739,109.913437 52.590015,119.208153 57.603413,128.693283 
	C51.740250,129.618896 46.613136,130.242523 41.569244,131.273361 
	C35.756683,132.461319 30.352169,134.334564 27.970741,140.765320 
	C27.572296,141.841293 25.439484,142.630569 23.992653,142.878342 
	C21.888468,143.238708 19.626295,142.710373 17.537376,143.111862 
	C16.481039,143.314896 15.313626,144.561478 14.799091,145.627213 
	C13.698958,147.905884 13.010790,150.381363 12.115798,152.761887 
	C11.488559,154.430237 9.760927,156.788025 10.321165,157.603043 
	C12.416032,160.650589 10.628578,163.827606 11.284176,166.561127 
	C12.953957,173.523239 15.779579,180.208130 18.142639,187.003967 
	C18.588961,186.900284 19.035284,186.796585 19.481606,186.692886 
	C18.087664,188.884430 16.693724,191.075974 15.228324,193.379868 
	C16.283773,194.032242 16.939505,194.565628 17.687220,194.880768 
	C32.816963,201.258087 48.626499,205.591843 64.893272,206.841019 
	C87.951256,208.611694 111.111938,209.077209 134.233505,209.978241 
	C154.202026,210.756409 174.184845,211.198685 194.146133,212.119354 
	C203.546692,212.552933 212.915329,216.619553 222.294510,212.016815 
	C222.401428,211.964355 222.595779,212.090042 222.982391,212.197098 
	C223.092041,213.452103 223.208740,214.787521 223.238205,215.124771 
	C226.693954,216.288330 229.423416,217.271240 232.193039,218.123749 
	C235.667603,219.193222 239.433899,221.108871 240.863083,215.373001 
	C241.021637,214.736679 242.199615,214.300598 242.965256,213.882309 
	C244.018768,213.306793 245.129913,212.836807 246.216339,212.321594 
	C245.357346,211.218475 244.498337,210.115341 243.603836,208.966644 
	C247.415649,205.587448 248.996948,208.442520 250.620331,211.429199 
	C252.272568,214.468964 252.876038,218.497742 257.775940,219.228485 
	C255.850708,212.772980 261.862152,212.896484 264.545715,211.871460 
	C270.203491,209.710388 268.980957,217.608734 272.693329,218.279907 
	C278.518829,217.364609 284.428314,216.458084 290.204712,216.991791 
	C300.435760,217.937088 310.562347,220.753616 320.824677,217.163651 
	C322.006226,216.750336 323.469421,217.080643 324.796967,217.155823 
	C335.866608,217.782654 346.936584,219.004257 358.003632,218.974854 
	C412.319122,218.830582 466.633331,218.236038 520.948853,218.029846 
	C577.772827,217.814117 634.597778,217.859268 692.397949,217.770599 
z"/>
<path fill="#FEFEFE" opacity="1.000000" stroke="none" 
	d="
M691.910156,217.780487 
	C634.597778,217.859268 577.772827,217.814117 520.948853,218.029846 
	C466.633331,218.236038 412.319122,218.830582 358.003632,218.974854 
	C346.936584,219.004257 335.866608,217.782654 324.796967,217.155823 
	C323.469421,217.080643 322.006226,216.750336 320.824677,217.163651 
	C310.562347,220.753616 300.435760,217.937088 290.204712,216.991791 
	C284.428314,216.458084 278.518829,217.364609 272.693329,218.279907 
	C268.980957,217.608734 270.203491,209.710388 264.545715,211.871460 
	C261.862152,212.896484 255.850708,212.772980 257.775940,219.228485 
	C252.876038,218.497742 252.272568,214.468964 250.620331,211.429199 
	C248.996948,208.442520 247.415649,205.587448 243.603836,208.966644 
	C244.498337,210.115341 245.357346,211.218475 246.216339,212.321594 
	C245.129913,212.836807 244.018768,213.306793 242.965256,213.882309 
	C242.199615,214.300598 241.021637,214.736679 240.863083,215.373001 
	C239.433899,221.108871 235.667603,219.193222 232.193039,218.123749 
	C229.423416,217.271240 226.693954,216.288330 223.238205,215.124771 
	C223.208740,214.787521 223.092041,213.452103 222.982391,212.197098 
	C222.595779,212.090042 222.401428,211.964355 222.294510,212.016815 
	C212.915329,216.619553 203.546692,212.552933 194.146133,212.119354 
	C174.184845,211.198685 154.202026,210.756409 134.233505,209.978241 
	C111.111938,209.077209 87.951256,208.611694 64.893272,206.841019 
	C48.626499,205.591843 32.816963,201.258087 17.687220,194.880768 
	C16.939505,194.565628 16.283773,194.032242 15.228324,193.379868 
	C16.693724,191.075974 18.087664,188.884430 19.481606,186.692886 
	C19.035284,186.796585 18.588961,186.900284 18.142639,187.003967 
	C15.779579,180.208130 12.953957,173.523239 11.284176,166.561127 
	C10.628578,163.827606 12.416032,160.650589 10.321165,157.603043 
	C9.760927,156.788025 11.488559,154.430237 12.115798,152.761887 
	C13.010790,150.381363 13.698958,147.905884 14.799091,145.627213 
	C15.313626,144.561478 16.481039,143.314896 17.537376,143.111862 
	C19.626295,142.710373 21.888468,143.238708 23.992653,142.878342 
	C25.439484,142.630569 27.572296,141.841293 27.970741,140.765320 
	C30.352169,134.334564 35.756683,132.461319 41.569244,131.273361 
	C46.613136,130.242523 51.740250,129.618896 57.603413,128.693283 
	C52.590015,119.208153 46.036739,109.913437 54.870361,98.603821 
	C51.441059,97.656975 48.583427,97.118790 45.928478,96.068352 
	C42.936966,94.884743 40.201569,93.055771 37.213482,91.860825 
	C35.255386,91.077782 33.046593,90.921631 30.268290,90.342628 
	C29.409843,82.094704 23.065685,76.139549 18.249678,69.256271 
	C15.209959,64.911758 12.367948,60.386253 9.888090,55.703201 
	C6.586114,49.467636 7.614108,44.217529 14.087739,41.580158 
	C22.294588,38.236668 31.067137,35.367222 39.822933,34.440933 
	C82.036659,29.975088 124.255821,24.991390 166.609039,22.567427 
	C212.329849,19.950726 258.196991,19.294338 304.008148,18.997229 
	C368.327118,18.580080 432.660156,19.944130 496.974060,19.279036 
	C540.937866,18.824392 584.875549,16.099953 628.831970,14.596469 
	C658.640259,13.576904 688.463318,12.994792 718.275085,12.066639 
	C740.242798,11.382700 762.202026,9.850910 784.166809,9.816910 
	C803.843018,9.786452 822.689209,14.235423 840.284302,23.734646 
	C852.563599,30.363979 857.754883,41.340023 859.900391,53.946041 
	C861.451355,63.059326 862.126038,72.525818 861.610168,81.746315 
	C860.355774,104.165649 858.148682,126.530983 856.389343,148.923080 
	C855.556091,159.528076 855.201904,170.184006 853.951416,180.736328 
	C853.457825,184.901474 851.510742,189.053650 849.533020,192.851059 
	C845.195251,201.179947 839.204773,206.146301 828.812012,207.532379 
	C783.510742,213.574188 738.112793,217.581985 691.910156,217.780487 
M205.405899,81.848106 
	C195.945328,103.565804 186.484772,125.283501 176.770142,147.584396 
	C175.893631,145.626938 175.351395,144.436111 174.825317,143.238205 
	C164.082993,118.777519 153.370682,94.303528 142.536209,69.883728 
	C141.838486,68.311134 140.359909,66.230331 138.968307,65.990776 
	C135.644974,65.418694 132.156448,65.806160 128.700165,65.806160 
	C128.700165,98.546600 128.700165,130.632462 128.700165,162.751740 
	C132.370178,162.751740 135.784042,162.751740 139.709198,162.751740 
	C139.709198,138.658051 139.709198,114.828789 139.709198,90.999535 
	C141.400848,92.336800 142.194977,93.866951 142.890198,95.440796 
	C152.269226,116.673271 161.683853,137.890350 170.943085,159.175003 
	C172.152786,161.955811 173.497894,163.152451 176.727661,163.169891 
	C180.066132,163.187912 181.116776,161.696777 182.285324,158.995987 
	C191.514282,137.665436 200.914932,116.409172 210.275894,95.135826 
	C210.944229,93.617004 211.716751,92.144035 212.440826,90.649742 
	C212.817429,90.776604 213.194016,90.903465 213.570618,91.030334 
	C213.570618,114.948700 213.570618,138.867065 213.570618,162.640732 
	C217.587997,162.640732 221.148163,162.640732 224.559906,162.640732 
	C224.559906,130.185074 224.559906,98.110733 224.559906,66.061478 
	C212.612900,65.173851 212.609848,65.172539 208.085648,75.683311 
	C207.299576,77.509521 206.551361,79.352028 205.405899,81.848106 
M521.465027,162.033890 
	C534.946472,159.720688 546.540039,154.172638 554.167725,142.282547 
	C561.157898,131.386322 561.976074,119.209694 560.948364,106.724823 
	C559.375732,87.618980 545.722046,70.968292 526.831543,68.206551 
	C511.955902,66.031784 496.692017,66.504707 481.598877,65.840889 
	C480.520355,65.793457 479.427643,66.068848 478.445190,66.182175 
	C478.445190,98.611885 478.445190,130.668121 478.445190,162.157318 
	C492.693787,162.157318 506.645172,162.157318 521.465027,162.033890 
M297.953186,78.526306 
	C296.314056,74.402504 295.775574,68.555588 292.740631,66.616997 
	C289.394592,64.479675 283.756775,65.928345 279.117157,65.820114 
	C278.451538,65.804581 277.770721,65.907578 277.121735,65.802582 
	C274.187500,65.327888 272.878021,66.543190 271.845093,69.410217 
	C261.336243,98.578888 250.638382,127.679451 240.001846,156.802155 
	C239.291779,158.746262 238.649826,160.715240 237.859787,163.010864 
	C240.231247,163.010864 242.100983,162.749557 243.868530,163.063553 
	C247.938751,163.786621 249.750824,161.986237 250.902954,158.226151 
	C252.698807,152.365265 255.082718,146.687103 257.065948,140.879791 
	C257.842682,138.605301 258.783844,137.418762 261.553101,137.450943 
	C275.870056,137.617325 290.190369,137.577637 304.508606,137.480011 
	C307.034027,137.462799 308.312836,138.133835 309.175323,140.713120 
	C311.678375,148.198608 314.558624,155.557953 317.235535,162.816650 
	C321.022400,162.816650 324.466522,162.816650 328.441650,162.816650 
	C318.243408,134.750092 308.169312,107.025208 297.953186,78.526306 
M591.690125,108.757332 
	C591.357361,108.442223 590.735107,108.128487 590.733643,107.811806 
	C590.683105,97.207886 590.691772,86.603691 590.691772,75.498772 
	C608.307739,75.498772 625.546692,75.498772 642.798523,75.498772 
	C642.798523,72.047691 642.798523,69.105705 642.798523,66.121353 
	C621.534607,66.121353 600.493835,66.121353 579.397583,66.121353 
	C579.397583,98.508545 579.397583,130.579361 579.397583,162.730957 
	C600.713562,162.730957 621.771240,162.730957 642.630493,162.730957 
	C642.630493,159.374420 642.630493,156.324753 642.630493,152.978424 
	C625.133423,152.978424 608.024048,152.978424 590.826965,152.978424 
	C590.826965,141.432907 590.826965,130.204773 590.826965,118.462555 
	C603.998047,118.462555 616.899780,118.462555 629.782471,118.462555 
	C629.782471,115.001762 629.782471,112.065460 629.782471,108.801056 
	C617.254333,108.801056 604.961426,108.801056 591.690125,108.757332 
M368.079559,120.528244 
	C358.024689,134.493698 347.969818,148.459167 337.910736,162.430466 
	C346.293793,164.810760 351.432770,161.909912 355.895599,154.963516 
	C362.836578,144.159897 370.896637,134.075272 378.772430,123.288696 
	C387.213196,134.971634 395.292542,146.151459 403.368561,157.333664 
	C407.815186,163.490555 411.345795,164.572998 419.325348,162.103226 
	C407.848602,146.183884 396.406036,130.311935 385.006653,114.499916 
	C396.569946,98.370010 407.957306,82.485550 419.513123,66.366081 
	C408.147522,64.781738 408.143097,64.778542 402.173706,73.059479 
	C400.032288,76.030159 397.938843,79.035553 395.786987,81.998558 
	C390.150940,89.759163 384.494781,97.505127 378.726715,105.421478 
	C370.175751,93.704910 361.930634,82.416771 353.696289,71.120766 
	C349.517853,65.388702 345.625000,64.266685 338.192474,66.753792 
	C349.627930,82.693787 361.044891,98.608002 372.448364,114.503418 
	C371.055237,116.453545 369.799805,118.210938 368.079559,120.528244 
M689.538940,125.892151 
	C682.197998,105.876694 674.857056,85.861244 667.584351,66.031975 
	C663.506775,66.031975 659.894897,66.031975 655.954163,66.031975 
	C656.607605,67.864449 657.139160,69.413742 657.710205,70.948296 
	C667.778564,98.000031 677.860291,125.046814 687.919983,152.101776 
	C692.151489,163.482330 692.131409,163.489807 704.813416,162.815536 
	C717.014587,130.732315 729.254272,98.547966 741.613770,66.048576 
	C739.883362,65.950394 738.709839,66.029915 737.602173,65.796631 
	C731.578796,64.528107 729.053528,67.428474 727.130798,72.936440 
	C719.700623,94.221664 711.778687,115.335304 704.029297,136.508957 
	C702.390442,140.986786 700.706665,145.448181 698.700073,150.840164 
	C695.498962,142.084808 692.670410,134.348312 689.538940,125.892151 
z"/>
<path fill="#0C0C0C" opacity="1.000000" stroke="none" 
	d="
M205.595779,81.517555 
	C206.551361,79.352028 207.299576,77.509521 208.085648,75.683311 
	C212.609848,65.172539 212.612900,65.173851 224.559906,66.061478 
	C224.559906,98.110733 224.559906,130.185074 224.559906,162.640732 
	C221.148163,162.640732 217.587997,162.640732 213.570618,162.640732 
	C213.570618,138.867065 213.570618,114.948700 213.570618,91.030334 
	C213.194016,90.903465 212.817429,90.776604 212.440826,90.649742 
	C211.716751,92.144035 210.944229,93.617004 210.275894,95.135826 
	C200.914932,116.409172 191.514282,137.665436 182.285324,158.995987 
	C181.116776,161.696777 180.066132,163.187912 176.727661,163.169891 
	C173.497894,163.152451 172.152786,161.955811 170.943085,159.175003 
	C161.683853,137.890350 152.269226,116.673271 142.890198,95.440796 
	C142.194977,93.866951 141.400848,92.336800 139.709198,90.999535 
	C139.709198,114.828789 139.709198,138.658051 139.709198,162.751740 
	C135.784042,162.751740 132.370178,162.751740 128.700165,162.751740 
	C128.700165,130.632462 128.700165,98.546600 128.700165,65.806160 
	C132.156448,65.806160 135.644974,65.418694 138.968307,65.990776 
	C140.359909,66.230331 141.838486,68.311134 142.536209,69.883728 
	C153.370682,94.303528 164.082993,118.777519 174.825317,143.238205 
	C175.351395,144.436111 175.893631,145.626938 176.770142,147.584396 
	C186.484772,125.283501 195.945328,103.565804 205.595779,81.517555 
z"/>
<path fill="#060606" opacity="1.000000" stroke="none" 
	d="
M521.030762,162.095612 
	C506.645172,162.157318 492.693787,162.157318 478.445190,162.157318 
	C478.445190,130.668121 478.445190,98.611885 478.445190,66.182175 
	C479.427643,66.068848 480.520355,65.793457 481.598877,65.840889 
	C496.692017,66.504707 511.955902,66.031784 526.831543,68.206551 
	C545.722046,70.968292 559.375732,87.618980 560.948364,106.724823 
	C561.976074,119.209694 561.157898,131.386322 554.167725,142.282547 
	C546.540039,154.172638 534.946472,159.720688 521.030762,162.095612 
M505.496979,75.523376 
	C500.198181,75.523376 494.899384,75.523376 489.536072,75.523376 
	C489.536072,101.585670 489.536072,127.276894 489.536072,152.825439 
	C498.709747,152.825439 507.556610,153.301010 516.333191,152.718094 
	C530.837158,151.754761 542.271790,145.523865 547.559753,131.163025 
	C550.968201,121.906342 551.031799,112.254120 548.872253,102.662498 
	C545.703064,88.586685 536.955872,79.918983 522.823242,77.131554 
	C517.481995,76.078079 511.942413,76.029900 505.496979,75.523376 
z"/>
<path fill="#060606" opacity="1.000000" stroke="none" 
	d="
M298.024200,78.913315 
	C308.169312,107.025208 318.243408,134.750092 328.441650,162.816650 
	C324.466522,162.816650 321.022400,162.816650 317.235535,162.816650 
	C314.558624,155.557953 311.678375,148.198608 309.175323,140.713120 
	C308.312836,138.133835 307.034027,137.462799 304.508606,137.480011 
	C290.190369,137.577637 275.870056,137.617325 261.553101,137.450943 
	C258.783844,137.418762 257.842682,138.605301 257.065948,140.879791 
	C255.082718,146.687103 252.698807,152.365265 250.902954,158.226151 
	C249.750824,161.986237 247.938751,163.786621 243.868530,163.063553 
	C242.100983,162.749557 240.231247,163.010864 237.859787,163.010864 
	C238.649826,160.715240 239.291779,158.746262 240.001846,156.802155 
	C250.638382,127.679451 261.336243,98.578888 271.845093,69.410217 
	C272.878021,66.543190 274.187500,65.327888 277.121735,65.802582 
	C277.770721,65.907578 278.451538,65.804581 279.117157,65.820114 
	C283.756775,65.928345 289.394592,64.479675 292.740631,66.616997 
	C295.775574,68.555588 296.314056,74.402504 298.024200,78.913315 
M280.501160,127.827866 
	C288.273926,127.827866 296.046661,127.827866 304.521271,127.827866 
	C298.071869,110.060753 291.819641,92.836815 285.665192,75.882256 
	C282.054626,74.729965 280.654053,76.173080 279.588898,79.262856 
	C276.302979,88.794456 272.644958,98.197258 269.180573,107.668045 
	C266.763489,114.275894 264.427002,120.913231 261.950470,127.827866 
	C268.193481,127.827866 273.847870,127.827866 280.501160,127.827866 
z"/>
<path fill="#0B0B0B" opacity="1.000000" stroke="none" 
	d="
M592.179321,108.779190 
	C604.961426,108.801056 617.254333,108.801056 629.782471,108.801056 
	C629.782471,112.065460 629.782471,115.001762 629.782471,118.462555 
	C616.899780,118.462555 603.998047,118.462555 590.826965,118.462555 
	C590.826965,130.204773 590.826965,141.432907 590.826965,152.978424 
	C608.024048,152.978424 625.133423,152.978424 642.630493,152.978424 
	C642.630493,156.324753 642.630493,159.374420 642.630493,162.730957 
	C621.771240,162.730957 600.713562,162.730957 579.397583,162.730957 
	C579.397583,130.579361 579.397583,98.508545 579.397583,66.121353 
	C600.493835,66.121353 621.534607,66.121353 642.798523,66.121353 
	C642.798523,69.105705 642.798523,72.047691 642.798523,75.498772 
	C625.546692,75.498772 608.307739,75.498772 590.691772,75.498772 
	C590.691772,86.603691 590.683105,97.207886 590.733643,107.811806 
	C590.735107,108.128487 591.357361,108.442223 592.179321,108.779190 
z"/>
<path fill="#060606" opacity="1.000000" stroke="none" 
	d="
M368.311951,120.248291 
	C369.799805,118.210938 371.055237,116.453545 372.448364,114.503418 
	C361.044891,98.608002 349.627930,82.693787 338.192474,66.753792 
	C345.625000,64.266685 349.517853,65.388702 353.696289,71.120766 
	C361.930634,82.416771 370.175751,93.704910 378.726715,105.421478 
	C384.494781,97.505127 390.150940,89.759163 395.786987,81.998558 
	C397.938843,79.035553 400.032288,76.030159 402.173706,73.059479 
	C408.143097,64.778542 408.147522,64.781738 419.513123,66.366081 
	C407.957306,82.485550 396.569946,98.370010 385.006653,114.499916 
	C396.406036,130.311935 407.848602,146.183884 419.325348,162.103226 
	C411.345795,164.572998 407.815186,163.490555 403.368561,157.333664 
	C395.292542,146.151459 387.213196,134.971634 378.772430,123.288696 
	C370.896637,134.075272 362.836578,144.159897 355.895599,154.963516 
	C351.432770,161.909912 346.293793,164.810760 337.910736,162.430466 
	C347.969818,148.459167 358.024689,134.493698 368.311951,120.248291 
z"/>
<path fill="#050505" opacity="1.000000" stroke="none" 
	d="
M689.690369,126.251991 
	C692.670410,134.348312 695.498962,142.084808 698.700073,150.840164 
	C700.706665,145.448181 702.390442,140.986786 704.029297,136.508957 
	C711.778687,115.335304 719.700623,94.221664 727.130798,72.936440 
	C729.053528,67.428474 731.578796,64.528107 737.602173,65.796631 
	C738.709839,66.029915 739.883362,65.950394 741.613770,66.048576 
	C729.254272,98.547966 717.014587,130.732315 704.813416,162.815536 
	C692.131409,163.489807 692.151489,163.482330 687.919983,152.101776 
	C677.860291,125.046814 667.778564,98.000031 657.710205,70.948296 
	C657.139160,69.413742 656.607605,67.864449 655.954163,66.031975 
	C659.894897,66.031975 663.506775,66.031975 667.584351,66.031975 
	C674.857056,85.861244 682.197998,105.876694 689.690369,126.251991 
z"/>
<path fill="#FDFDFD" opacity="1.000000" stroke="none" 
	d="
M505.995117,75.523422 
	C511.942413,76.029900 517.481995,76.078079 522.823242,77.131554 
	C536.955872,79.918983 545.703064,88.586685 548.872253,102.662498 
	C551.031799,112.254120 550.968201,121.906342 547.559753,131.163025 
	C542.271790,145.523865 530.837158,151.754761 516.333191,152.718094 
	C507.556610,153.301010 498.709747,152.825439 489.536072,152.825439 
	C489.536072,127.276894 489.536072,101.585670 489.536072,75.523376 
	C494.899384,75.523376 500.198181,75.523376 505.995117,75.523422 
z"/>
<path fill="#FAFAFA" opacity="1.000000" stroke="none" 
	d="
M280.001709,127.827866 
	C273.847870,127.827866 268.193481,127.827866 261.950470,127.827866 
	C264.427002,120.913231 266.763489,114.275894 269.180573,107.668045 
	C272.644958,98.197258 276.302979,88.794456 279.588898,79.262856 
	C280.654053,76.173080 282.054626,74.729965 285.665192,75.882256 
	C291.819641,92.836815 298.071869,110.060753 304.521271,127.827866 
	C296.046661,127.827866 288.273926,127.827866 280.001709,127.827866 
z"/>
</svg>